<?xml version="1.0" encoding="UTF-8"?>
<svg id="Layer_2" data-name="Layer 2" xmlns="http://www.w3.org/2000/svg" viewBox="0 0 6488.33 735.87">
  <defs>
    <style>
      .cls-1 {
        fill: #6f7277;
      }

      .cls-2 {
        fill: none;
        stroke: #666a70;
        stroke-miterlimit: 10;
        stroke-width: 6px;
      }

      .cls-3 {
        fill: #da291c;
      }

      .cls-4 {
        fill: #666a70;
      }
    </style>
  </defs>
  <g id="Layer_1-2" data-name="Layer 1">
    <g>
      <path class="cls-3" d="M1091.91,192.36h-38.87v-61.66h-291.73v61.66h-38.29V48.04c0-31.72,15.44-47.59,46.29-47.59h276.17c30.97,0,46.43,16.04,46.43,48.04v143.86ZM761.31,92.26h291.73v-38.17c0-10.16-5.16-15.24-15.41-15.24h-260.93c-10.25,0-15.39,5.23-15.39,15.73v37.69Z"/>
      <rect class="cls-3" x="1123.27" y=".47" width="39.21" height="191.9"/>
      <path class="cls-3" d="M1563.36,192.36h-46.79l-46.5-61.53h-237.47v61.53h-38.92l.48-191.9h323.06c30.44,0,45.67,15.13,45.67,45.33,0,0,.79,8.45,0,31.88-.79,23.55-27.8,48.95-46.34,53.06-18.25,4.01.05-.02,0,0l46.82,61.63ZM1507.71,38.85h-275.12v53.88h269.96c14.31,0,22.04-13.93,22.04-23.41v-14.98c.12-10.35-5.52-15.49-16.88-15.49"/>
      <path class="cls-3" d="M2548.25,192.39h-38.87v-61.7h-291.73v61.7h-38.29V48.05c0-31.72,15.44-47.59,46.31-47.59h276.15c30.97,0,46.43,16.04,46.43,48.02v143.91ZM2217.65,92.27h291.73v-38.15c0-10.2-5.16-15.27-15.44-15.27h-260.93c-10.23,0-15.36,5.23-15.36,15.7v37.72Z"/>
      <path class="cls-3" d="M2899.75,192.44l-321.19-.19v-38.68h315.96c9.67,0,14.52-4.99,14.62-14.98v-23.07h-284.17c-30.97,0-46.41-15.61-46.41-46.75V.45h38.56v62.09c0,9.99,5.31,15.05,15.85,15.05h276.17V.18h38.61v144.99c0,31.5-16.01,47.27-47.99,47.27"/>
      <path class="cls-3" d="M3348.16,145.32c0,31.38-15.68,47.06-47.03,47.06h-322.15l.46-38.03h314.92c10.11,0,15.3-4.66,15.51-14.09v-9.34c.21-10.13-5.07-15.15-15.82-15.15h-268.54c-31.02,0-46.53-14.36-46.53-43.05v-25.4c0-30.99,15.17-46.53,45.64-46.53l323.54-.34v38.34h-315.38c-10.16,0-15.22,5.14-15.22,15.32v7.68c0,10.4,4.95,15.63,14.91,15.63h268.66c31.36,0,47.03,15.08,47.03,45.35v22.54Z"/>
      <path class="cls-3" d="M1891.65,153.9h198.67c12.6,0,18.92-4.99,18.92-14.88V.48h38.29v144.94c0,31.48-14.98,47.18-44.9,47.18h-461.64c-31.48,0-47.2-15.7-47.2-47.18V.46h39.69v138.07c0,10.25,4.97,15.37,14.88,15.37h201.92l-.14-153.34h41.51v153.34Z"/>
      <path class="cls-4" d="M1091.91,505.1h-38.89v-61.82h-291.71v61.82h-38.29v-144.46c0-31.79,15.44-47.66,46.29-47.66h276.17c30.97,0,46.43,16.04,46.43,48.11v144ZM761.31,404.89h291.71v-38.22c0-10.2-5.14-15.25-15.37-15.25h-260.95c-10.25,0-15.39,5.21-15.39,15.7v37.77Z"/>
      <polygon class="cls-4" points="1475.1 312.77 1313.5 467.77 1151.54 313.09 1098.34 313.09 1287.28 505.11 1339.74 505.11 1529 312.77 1475.1 312.77"/>
      <rect class="cls-4" x="1547.46" y="312.77" width="39.23" height="192.12"/>
      <path class="cls-1" d="M1992.93,504.94h-38.89v-61.82h-291.71v61.82h-38.29v-144.55c0-31.76,15.41-47.66,46.26-47.66h276.2c30.97,0,46.43,16.09,46.43,48.11v144.1ZM1662.33,404.68h291.71v-38.27c0-10.16-5.16-15.22-15.41-15.22h-260.93c-10.23,0-15.37,5.23-15.37,15.73v37.77Z"/>
      <polygon class="cls-4" points="2028.76 312.99 2028.76 351.91 2221.29 351.91 2221.29 504.77 2267.41 504.77 2267.41 351.31 2459.33 351.31 2459.33 312.99 2028.76 312.99"/>
      <rect class="cls-4" x="2496.26" y="312.99" width="39.21" height="191.81"/>
      <path class="cls-4" d="M2618.48,505c-30.76,0-46.1-15.44-46.1-46.26v-99.61c0-30.78,15.25-46.15,45.64-46.15h276.68c31.21,0,46.84,15.75,46.84,47.2v99.49c0,29.89-15.1,44.87-45.35,44.87l-277.71.46ZM2902.98,451.39v-83.86c0-10.73-5.14-16.09-15.37-16.09h-260.98c-10.28,0-15.39,4.97-15.39,15.01v84.51c0,10.42,5.11,15.63,15.39,15.63h261.26c10.03,0,15.08-5.07,15.08-15.2"/>
      <polygon class="cls-4" points="3308.92 312.99 3309.04 459.54 3017.07 312.99 2978.44 312.99 2978.92 504.75 3017.38 504.75 3017.38 357.69 3308.75 504.89 3347.69 504.89 3347.69 312.99 3308.92 312.99"/>
      <polygon class="cls-3" points="0 504.5 570.09 504.57 570.09 412.81 58.65 412.79 0 504.5"/>
      <polygon class="cls-3" points="570.09 366.96 570.09 275.22 147.34 275.2 88.4 366.94 570.09 366.96"/>
      <polygon class="cls-3" points="570.09 229.36 570.09 137.62 235.48 137.57 176.8 229.31 570.09 229.36"/>
      <polygon class="cls-3" points="323.86 0 265.2 91.74 570.09 91.76 570.09 .02 323.86 0"/>
      <g>
        <path class="cls-4" d="M43.33,734.39h-7.66v-101.64H.32v-7.14h78.35v7.14h-35.34v101.64Z"/>
        <path class="cls-4" d="M201.04,734.39h-7.66v-53.5h-63.54v53.5h-7.59v-108.78h7.59v48.29h63.54v-48.29h7.66v108.78Z"/>
        <path class="cls-4" d="M318.73,734.39h-59.45v-108.78h59.45v6.99h-51.86v41.15h48.96v6.99h-48.96v46.65h51.86v6.99Z"/>
        <path class="cls-4" d="M480.2,679.55h40.1v49.63c-10.52,4.46-22.35,6.7-35.49,6.7-17.16,0-30.32-4.85-39.47-14.55-9.15-9.7-13.73-23.42-13.73-41.18,0-11.06,2.27-20.87,6.81-29.43,4.54-8.56,11.04-15.17,19.5-19.83,8.46-4.66,18.17-6.99,29.13-6.99,11.86,0,22.5,2.18,31.92,6.55l-3.05,6.85c-9.43-4.36-19.2-6.55-29.32-6.55-14.34,0-25.71,4.43-34.12,13.28-8.41,8.85-12.61,20.8-12.61,35.83,0,16.37,3.99,28.68,11.98,36.94,7.99,8.26,19.72,12.39,35.19,12.39,10.02,0,18.53-1.41,25.52-4.24v-38.25h-32.37v-7.14Z"/>
        <path class="cls-4" d="M575.04,734.39v-108.78h7.59v101.64h51.86v7.14h-59.45Z"/>
        <path class="cls-4" d="M769.07,679.85c0,17.26-4.32,30.92-12.95,40.96-8.63,10.04-20.54,15.07-35.72,15.07s-27.01-5.02-35.64-15.07c-8.63-10.04-12.95-23.75-12.95-41.11s4.35-30.94,13.06-40.89c8.71-9.95,20.6-14.92,35.68-14.92s27.06,5,35.64,14.99c8.58,10,12.87,23.65,12.87,40.96ZM680.08,679.85c0,15.58,3.47,27.62,10.42,36.12,6.94,8.51,16.92,12.76,29.91,12.76s23.1-4.22,30.02-12.65c6.92-8.43,10.38-20.51,10.38-36.24s-3.46-27.69-10.38-36.05c-6.92-8.36-16.88-12.54-29.88-12.54s-22.93,4.22-29.95,12.65c-7.02,8.43-10.53,20.41-10.53,35.94Z"/>
        <path class="cls-4" d="M821.5,625.6h29.84c13.44,0,23.31,2.28,29.61,6.84,6.3,4.57,9.45,11.46,9.45,20.69,0,6.3-1.92,11.55-5.77,15.74-3.84,4.19-9.46,6.88-16.85,8.07v.45c8.68,1.29,15.07,4.03,19.16,8.22,4.09,4.19,6.14,10.03,6.14,17.52,0,10.02-3.32,17.73-9.97,23.14-6.65,5.41-16.07,8.11-28.27,8.11h-33.34v-108.78ZM829.09,674.04h23.96c10.22,0,17.65-1.7,22.29-5.1,4.64-3.4,6.96-8.72,6.96-15.96s-2.62-12.5-7.85-15.77c-5.23-3.27-13.03-4.91-23.4-4.91h-21.95v41.74ZM829.09,680.74v46.95h25.6c20.14,0,30.21-8.18,30.21-24.55,0-14.93-10.62-22.4-31.85-22.4h-23.96Z"/>
        <path class="cls-4" d="M993.8,695.99h-44.2l-15.18,38.39h-8.41l43.75-109.23h4.84l42.86,109.23h-8.56l-15.1-38.39ZM952.35,689.15h38.92l-14.81-39.21c-1.24-3.08-2.73-7.34-4.46-12.8-1.34,4.76-2.8,9.08-4.39,12.95l-15.25,39.06Z"/>
        <path class="cls-4" d="M1060.29,734.39v-108.78h7.59v101.64h51.86v7.14h-59.45Z"/>
        <path class="cls-4" d="M1292,734.39h-59.45v-108.78h59.45v6.99h-51.86v41.15h48.96v6.99h-48.96v46.65h51.86v6.99Z"/>
        <path class="cls-4" d="M1426.65,678.95c0,18.26-4.79,32.06-14.36,41.41-9.57,9.35-23.64,14.03-42.19,14.03h-26.04v-108.78h29.39c17.36,0,30.57,4.54,39.62,13.62,9.05,9.08,13.58,22.32,13.58,39.73ZM1418.39,679.25c0-15.58-3.96-27.29-11.87-35.16-7.91-7.86-19.53-11.79-34.86-11.79h-20.01v95.39h18.01c32.49,0,48.74-16.15,48.74-48.44Z"/>
        <path class="cls-4" d="M1559.07,625.6v70.39c0,12.5-3.62,22.27-10.86,29.32-7.24,7.04-17.34,10.57-30.28,10.57s-22.43-3.54-29.5-10.6c-7.07-7.07-10.6-16.93-10.6-29.58v-70.09h7.66v70.39c0,10.47,2.9,18.61,8.71,24.44,5.8,5.83,14.01,8.74,24.63,8.74s18.4-2.87,24.11-8.59c5.7-5.73,8.56-13.68,8.56-23.85v-71.13h7.59Z"/>
        <path class="cls-4" d="M1662.54,630.89c-13.64,0-24.38,4.37-32.22,13.1-7.84,8.73-11.76,20.68-11.76,35.86s3.69,27.58,11.09,36.16c7.39,8.58,17.96,12.87,31.7,12.87,9.13,0,17.51-1.17,25.15-3.5v6.7c-7.19,2.53-16.17,3.8-26.93,3.8-15.28,0-27.31-4.94-36.09-14.81-8.78-9.87-13.17-23.66-13.17-41.37,0-11.06,2.09-20.81,6.29-29.24,4.19-8.43,10.22-14.94,18.08-19.53,7.86-4.59,17-6.88,27.42-6.88s20.11,1.98,28.5,5.95l-3.05,6.84c-7.94-3.97-16.27-5.95-25-5.95Z"/>
        <path class="cls-4" d="M1790.57,695.99h-44.2l-15.18,38.39h-8.41l43.75-109.23h4.84l42.86,109.23h-8.56l-15.1-38.39ZM1749.13,689.15h38.92l-14.81-39.21c-1.24-3.08-2.73-7.34-4.46-12.8-1.34,4.76-2.8,9.08-4.39,12.95l-15.25,39.06Z"/>
        <path class="cls-4" d="M1874.77,734.39h-7.66v-101.64h-35.34v-7.14h78.35v7.14h-35.34v101.64Z"/>
        <path class="cls-4" d="M2042.09,679.85c0,17.26-4.31,30.92-12.95,40.96-8.63,10.04-20.54,15.07-35.72,15.07s-27.01-5.02-35.64-15.07c-8.63-10.04-12.95-23.75-12.95-41.11s4.35-30.94,13.06-40.89c8.71-9.95,20.6-14.92,35.68-14.92s27.06,5,35.64,14.99c8.58,10,12.87,23.65,12.87,40.96ZM1953.1,679.85c0,15.58,3.47,27.62,10.42,36.12,6.94,8.51,16.92,12.76,29.91,12.76s23.1-4.22,30.02-12.65c6.92-8.43,10.38-20.51,10.38-36.24s-3.46-27.69-10.38-36.05c-6.92-8.36-16.88-12.54-29.87-12.54s-22.93,4.22-29.95,12.65c-7.02,8.43-10.53,20.41-10.53,35.94Z"/>
        <path class="cls-4" d="M2102.11,686.99v47.4h-7.59v-108.78h25.89c13.49,0,23.46,2.49,29.91,7.48,6.45,4.99,9.67,12.49,9.67,22.51,0,7.29-1.92,13.44-5.77,18.45-3.84,5.01-9.69,8.61-17.52,10.79l29.54,49.56h-9.08l-28.05-47.4h-27.01ZM2102.11,680.44h20.76c9.18,0,16.3-2.05,21.35-6.14,5.06-4.09,7.59-10.13,7.59-18.12s-2.48-14.31-7.44-18.08c-4.96-3.77-13.05-5.66-24.26-5.66h-18.01v47.99Z"/>
        <path class="cls-4" d="M2279.13,734.39v-108.78h7.59v108.78h-7.59Z"/>
        <path class="cls-4" d="M2424.05,734.39h-7.66l-64.44-96.58h-.59c.59,11.51.89,20.19.89,26.04v70.54h-7.29v-108.78h7.59l64.36,96.43h.45c-.45-8.93-.67-17.41-.67-25.45v-70.98h7.36v108.78Z"/>
        <path class="cls-4" d="M2601.29,695.99h-44.2l-15.18,38.39h-8.41l43.75-109.23h4.84l42.86,109.23h-8.56l-15.1-38.39ZM2559.84,689.15h38.92l-14.81-39.21c-1.24-3.08-2.73-7.34-4.46-12.8-1.34,4.76-2.8,9.08-4.39,12.95l-15.25,39.06Z"/>
        <path class="cls-4" d="M2725.97,625.6h8.26l-40.7,108.78h-6.7l-40.55-108.78h8.11l27.38,74.03c4.17,11.16,6.97,19.55,8.41,25.15.99-3.72,2.95-9.5,5.88-17.34l29.91-81.85Z"/>
        <path class="cls-4" d="M2777.06,734.39v-108.78h7.59v108.78h-7.59Z"/>
        <path class="cls-4" d="M2895.27,695.99h-44.2l-15.18,38.39h-8.41l43.75-109.23h4.84l42.86,109.23h-8.56l-15.1-38.39ZM2853.82,689.15h38.92l-14.81-39.21c-1.24-3.08-2.73-7.34-4.46-12.8-1.34,4.76-2.8,9.08-4.39,12.95l-15.25,39.06Z"/>
        <path class="cls-4" d="M2979.47,734.39h-7.66v-101.64h-35.34v-7.14h78.35v7.14h-35.34v101.64Z"/>
        <path class="cls-4" d="M3058.39,734.39v-108.78h7.59v108.78h-7.59Z"/>
        <path class="cls-4" d="M3215.66,679.85c0,17.26-4.31,30.92-12.95,40.96-8.63,10.04-20.54,15.07-35.72,15.07s-27.01-5.02-35.64-15.07c-8.63-10.04-12.95-23.75-12.95-41.11s4.35-30.94,13.06-40.89c8.71-9.95,20.6-14.92,35.68-14.92s27.06,5,35.64,14.99c8.58,10,12.87,23.65,12.87,40.96ZM3126.67,679.85c0,15.58,3.47,27.62,10.42,36.12,6.94,8.51,16.92,12.76,29.91,12.76s23.1-4.22,30.02-12.65c6.92-8.43,10.38-20.51,10.38-36.24s-3.46-27.69-10.38-36.05c-6.92-8.36-16.88-12.54-29.87-12.54s-22.93,4.22-29.95,12.65c-7.02,8.43-10.53,20.41-10.53,35.94Z"/>
        <path class="cls-4" d="M3347.18,734.39h-7.66l-64.44-96.58h-.59c.59,11.51.89,20.19.89,26.04v70.54h-7.29v-108.78h7.59l64.36,96.43h.45c-.45-8.93-.67-17.41-.67-25.45v-70.98h7.36v108.78Z"/>
      </g>
    </g>
    <line class="cls-2" x1="3646.94" y1="93.55" x2="3646.94" y2="656.55"/>
    <g>
      <path class="cls-4" d="M4125.73,301.94c0,37.97-11.87,67.01-35.58,87.12-23.73,20.11-57.47,30.16-101.23,30.16h-32.09v125.48h-74.8V191.91h112.69c42.79,0,75.32,9.22,97.6,27.63,22.28,18.43,33.42,45.89,33.42,82.4ZM3956.83,357.92h24.61c23.01,0,40.22-4.54,51.64-13.63,11.42-9.09,17.14-22.32,17.14-39.7s-4.79-30.48-14.36-38.85c-9.58-8.36-24.58-12.54-45-12.54h-34.03v104.72Z"/>
      <path class="cls-4" d="M4512.55,367.82c0,58.39-14.48,103.28-43.44,134.65-28.95,31.37-70.46,47.06-124.52,47.06s-95.55-15.69-124.51-47.06c-28.96-31.37-43.43-76.41-43.43-135.13s14.52-103.55,43.55-134.52c29.03-30.97,70.66-46.46,124.87-46.46s95.68,15.61,124.39,46.81c28.72,31.21,43.08,76.1,43.08,134.65ZM4255.07,367.82c0,39.42,7.48,69.1,22.45,89.05,14.96,19.94,37.32,29.92,67.07,29.92,59.69,0,89.53-39.65,89.53-118.97s-29.67-119.2-89.04-119.2c-29.76,0-52.21,10.02-67.32,30.04-15.13,20.03-22.69,49.76-22.69,89.16Z"/>
      <path class="cls-4" d="M4660.46,409.32v135.37h-74.8V191.91h102.8c47.94,0,83.41,8.73,106.41,26.19,23.01,17.46,34.51,43.95,34.51,79.51,0,20.75-5.71,39.21-17.13,55.37-11.43,16.17-27.59,28.84-48.5,38.01,53.09,79.31,87.67,130.54,103.76,153.71h-83l-84.22-135.37h-39.81ZM4660.46,348.52h24.13c23.65,0,41.1-3.94,52.36-11.83,11.26-7.88,16.89-20.27,16.89-37.16s-5.75-28.63-17.26-35.71c-11.5-7.07-29.32-10.61-53.45-10.61h-22.68v95.31Z"/>
      <path class="cls-4" d="M5048,544.69h-74.81V254.16h-95.8v-62.26h266.4v62.26h-95.8v290.53Z"/>
      <path class="cls-4" d="M5485.24,191.91v228.27c0,26.06-5.84,48.91-17.49,68.53-11.67,19.63-28.52,34.67-50.55,45.12-22.04,10.46-48.1,15.69-78.18,15.69-45.36,0-80.6-11.62-105.69-34.87-25.1-23.24-37.65-55.06-37.65-95.44v-227.31h74.57v215.97c0,27.19,5.46,47.14,16.41,59.85,10.94,12.71,29.03,19.06,54.29,19.06s42.19-6.4,53.21-19.19c11.02-12.79,16.53-32.85,16.53-60.2v-215.49h74.56Z"/>
      <path class="cls-4" d="M5705.54,346.58h139.96v182.9c-22.68,7.41-44.04,12.59-64.07,15.57-20.03,2.97-40.5,4.47-61.41,4.47-53.25,0-93.91-15.65-121.98-46.94-28.08-31.29-42.11-76.21-42.11-134.77s16.29-101.35,48.86-133.2c32.58-31.85,77.73-47.78,135.49-47.78,36.19,0,71.1,7.24,104.73,21.71l-24.86,59.85c-25.74-12.87-52.52-19.31-80.35-19.31-32.34,0-58.24,10.86-77.7,32.58-19.47,21.72-29.2,50.92-29.2,87.6s7.84,67.53,23.53,87.71c15.68,20.2,38.49,30.29,68.41,30.29,15.6,0,31.45-1.61,47.54-4.82v-73.59h-66.84v-62.26Z"/>
      <path class="cls-4" d="M6145.44,544.69l-25.58-83.98h-128.61l-25.58,83.98h-80.6l124.51-354.23h91.46l124.99,354.23h-80.6ZM6102.01,397.98c-23.65-76.09-36.96-119.12-39.94-129.1-2.98-9.97-5.11-17.86-6.39-23.64-5.31,20.6-20.51,71.51-45.6,152.74h91.94Z"/>
      <path class="cls-4" d="M6270.44,544.69V191.91h74.8v291.01h143.09v61.78h-217.89Z"/>
    </g>
  </g>
</svg>